<svg width="32" height="32" viewBox="0 0 32 32" fill="none" xmlns="http://www.w3.org/2000/svg">
<path d="M0 16C0 7.16344 7.16344 0 16 0C24.8366 0 32 7.16344 32 16C32 24.8366 24.8366 32 16 32C7.16344 32 0 24.8366 0 16Z" fill="#212121"/>
<path fill-rule="evenodd" clip-rule="evenodd" d="M22.5844 17.1639L16.6585 22.6067C16.2948 22.9407 15.7052 22.9407 15.3416 22.6067L9.41563 17.1639C9.05198 16.83 9.05198 16.2884 9.41563 15.9544C9.77927 15.6205 10.3689 15.6205 10.7325 15.9544L15.0689 19.9372V9.99813C15.0689 9.52579 15.4858 9.14288 16 9.14288C16.5143 9.14288 16.9312 9.52579 16.9312 9.99813V19.9372L21.2676 15.9544C21.6312 15.6205 22.2208 15.6205 22.5844 15.9544C22.9481 16.2884 22.9481 16.83 22.5844 17.1639Z" fill="white"/>
</svg>
