<svg width="16" height="16" viewBox="0 0 16 16" fill="none" xmlns="http://www.w3.org/2000/svg">
<path d="M0 8C0 3.58172 3.58172 0 8 0C12.4183 0 16 3.58172 16 8C16 12.4183 12.4183 16 8 16C3.58172 16 0 12.4183 0 8Z" fill="#212121"/>
<path fill-rule="evenodd" clip-rule="evenodd" d="M11.2923 8.58194L8.32936 11.3033C8.14754 11.4703 7.85274 11.4703 7.67092 11.3033L4.70794 8.58194C4.52611 8.41494 4.52611 8.14419 4.70794 7.97719C4.88976 7.8102 5.18455 7.8102 5.36638 7.97719L7.53455 9.96856V4.99903C7.53455 4.76286 7.743 4.57141 8.00014 4.57141C8.25728 4.57141 8.46573 4.76286 8.46573 4.99903V9.96856L10.6339 7.97719C10.8157 7.8102 11.1105 7.8102 11.2923 7.97719C11.4742 8.14419 11.4742 8.41494 11.2923 8.58194Z" fill="white"/>
</svg>
