<svg width="16" height="16" viewBox="0 0 16 16" fill="none" xmlns="http://www.w3.org/2000/svg">
<path d="M0 8C0 3.58172 3.58172 0 8 0C12.4183 0 16 3.58172 16 8C16 12.4183 12.4183 16 8 16C3.58172 16 0 12.4183 0 8Z" fill="#37A86E"/>
<path fill-rule="evenodd" clip-rule="evenodd" d="M4.70766 7.41806L7.67064 4.69669C7.85246 4.5297 8.14726 4.5297 8.32908 4.69669L11.2921 7.41806C11.4739 7.58506 11.4739 7.85581 11.2921 8.02281C11.1102 8.1898 10.8154 8.1898 10.6336 8.02281L8.46545 6.03144L8.46545 11.001C8.46545 11.2371 8.257 11.4286 7.99986 11.4286C7.74272 11.4286 7.53427 11.2371 7.53427 11.001L7.53427 6.03144L5.3661 8.02281C5.18427 8.1898 4.88948 8.1898 4.70766 8.02281C4.52583 7.85581 4.52583 7.58506 4.70766 7.41806Z" fill="white"/>
</svg>
