<svg width="32" height="32" viewBox="0 0 32 32" fill="none" xmlns="http://www.w3.org/2000/svg">
<path d="M0 16C0 7.16344 7.16344 0 16 0C24.8366 0 32 7.16344 32 16C32 24.8366 24.8366 32 16 32C7.16344 32 0 24.8366 0 16Z" fill="#37A86E"/>
<path fill-rule="evenodd" clip-rule="evenodd" d="M9.41559 14.8361L15.3416 9.39333C15.7052 9.05933 16.2948 9.05933 16.6584 9.39333L22.5844 14.8361C22.9481 15.17 22.9481 15.7116 22.5844 16.0456C22.2208 16.3795 21.6312 16.3795 21.2675 16.0456L16.9312 12.0628L16.9312 22.0019C16.9312 22.4742 16.5143 22.8571 16 22.8571C15.4857 22.8571 15.0688 22.4742 15.0688 22.0019L15.0688 12.0628L10.7325 16.0456C10.3688 16.3795 9.77923 16.3795 9.41559 16.0456C9.05194 15.7116 9.05194 15.17 9.41559 14.8361Z" fill="white"/>
</svg>
