<svg width="24" height="24" viewBox="0 0 24 24" fill="none" xmlns="http://www.w3.org/2000/svg">
<path d="M3 7V3L7 5L3 7ZM18 7V3L22 5L18 7ZM11 6V2L15 4L11 6ZM9 21.875C8.13333 21.7917 7.28333 21.6667 6.45 21.5C5.61667 21.3333 4.87067 21.1293 4.212 20.888C3.55333 20.6467 3.02 20.3673 2.612 20.05C2.204 19.7327 2 19.3827 2 19V10C2 9.58333 2.26267 9.196 2.788 8.838C3.31333 8.48 4.02567 8.16333 4.925 7.888C5.82433 7.61267 6.88267 7.396 8.1 7.238C9.31733 7.08 10.6173 7.00067 12 7C13.3827 6.99933 14.6827 7.07867 15.9 7.238C17.1173 7.39733 18.1757 7.614 19.075 7.888C19.9743 8.162 20.687 8.47867 21.213 8.838C21.739 9.19733 22.0013 9.58467 22 10V19C22 19.3833 21.796 19.7333 21.388 20.05C20.98 20.3667 20.4467 20.646 19.788 20.888C19.1293 21.13 18.3833 21.334 17.55 21.5C16.7167 21.666 15.8667 21.791 15 21.875V17H9V21.875ZM12 11C13.6167 11 15.0127 10.904 16.188 10.712C17.3633 10.52 18.3007 10.2993 19 10.05C19 9.96667 18.3667 9.771 17.1 9.463C15.8333 9.155 14.1333 9.00067 12 9C9.86667 8.99933 8.16667 9.15367 6.9 9.463C5.63333 9.77233 5 9.968 5 10.05C5.7 10.3 6.63733 10.521 7.812 10.713C8.98667 10.905 10.3827 11.0007 12 11Z" fill="#2169DB"/>
</svg>
