<svg width="32" height="32" viewBox="0 0 32 32" fill="none" xmlns="http://www.w3.org/2000/svg">
<path d="M4.00002 9.33335V4.00002L9.33335 6.66669L4.00002 9.33335ZM24 9.33335V4.00002L29.3334 6.66669L24 9.33335ZM14.6667 8.00002V2.66669L20 5.33335L14.6667 8.00002ZM12 29.1667C10.8445 29.0556 9.71113 28.8889 8.60002 28.6667C7.48891 28.4445 6.49424 28.1725 5.61602 27.8507C4.7378 27.5289 4.02669 27.1565 3.48269 26.7334C2.93869 26.3102 2.66669 25.8436 2.66669 25.3334V13.3334C2.66669 12.7778 3.01691 12.2614 3.71735 11.784C4.4178 11.3067 5.36758 10.8845 6.56669 10.5174C7.7658 10.1502 9.17691 9.86135 10.8 9.65069C12.4231 9.44002 14.1565 9.33424 16 9.33335C17.8436 9.33247 19.5769 9.43824 21.2 9.65069C22.8231 9.86313 24.2342 10.152 25.4334 10.5174C26.6325 10.8827 27.5827 11.3049 28.284 11.784C28.9854 12.2631 29.3351 12.7796 29.3334 13.3334V25.3334C29.3334 25.8445 29.0614 26.3111 28.5174 26.7334C27.9734 27.1556 27.2622 27.528 26.384 27.8507C25.5058 28.1734 24.5111 28.4454 23.4 28.6667C22.2889 28.888 21.1556 29.0547 20 29.1667V22.6667H12V29.1667ZM16 14.6667C18.1556 14.6667 20.0169 14.5387 21.584 14.2827C23.1511 14.0267 24.4009 13.7325 25.3334 13.4C25.3334 13.2889 24.4889 13.028 22.8 12.6174C21.1111 12.2067 18.8445 12.0009 16 12C13.1556 11.9991 10.8889 12.2049 9.20002 12.6174C7.51113 13.0298 6.66669 13.2907 6.66669 13.4C7.60002 13.7334 8.8498 14.028 10.416 14.284C11.9822 14.54 13.8436 14.6676 16 14.6667Z" fill="#2169DB"/>
</svg>
