<svg width="16" height="15" viewBox="0 0 16 15" fill="none" xmlns="http://www.w3.org/2000/svg">
<path d="M4.71875 3.8L6.81875 1.08125C6.96875 0.88125 7.14687 0.734375 7.35312 0.640625C7.55937 0.546875 7.775 0.5 8 0.5C8.225 0.5 8.44063 0.546875 8.64688 0.640625C8.85313 0.734375 9.03125 0.88125 9.18125 1.08125L11.2812 3.8L14.4688 4.86875C14.7937 4.96875 15.05 5.15312 15.2375 5.42188C15.425 5.69063 15.5187 5.9875 15.5187 6.3125C15.5187 6.4625 15.4969 6.6125 15.4531 6.7625C15.4094 6.9125 15.3375 7.05625 15.2375 7.19375L13.175 10.1187L13.25 13.1938C13.2625 13.6313 13.1188 14 12.8188 14.3C12.5188 14.6 12.1688 14.75 11.7688 14.75C11.7438 14.75 11.6063 14.7313 11.3563 14.6938L8 13.7563L4.64375 14.6938C4.58125 14.7188 4.5125 14.7344 4.4375 14.7406C4.3625 14.7469 4.29375 14.75 4.23125 14.75C3.83125 14.75 3.48125 14.6 3.18125 14.3C2.88125 14 2.7375 13.6313 2.75 13.1938L2.825 10.1L0.78125 7.19375C0.68125 7.05625 0.609375 6.9125 0.565625 6.7625C0.521875 6.6125 0.5 6.4625 0.5 6.3125C0.5 6 0.590625 5.70937 0.771875 5.44063C0.953125 5.17188 1.20625 4.98125 1.53125 4.86875L4.71875 3.8Z" fill="#2169DB"/>
</svg>
