<svg width="12" height="12" viewBox="0 0 12 12" fill="none" xmlns="http://www.w3.org/2000/svg">
<mask id="mask0_229_142" style="mask-type:alpha" maskUnits="userSpaceOnUse" x="0" y="0" width="12" height="12">
<rect width="12" height="12" fill="#D9D9D9"/>
</mask>
<g mask="url(#mask0_229_142)">
<path d="M3.8125 3.2L5.2125 1.3875C5.3125 1.25417 5.43125 1.15625 5.56875 1.09375C5.70625 1.03125 5.85 1 6 1C6.15 1 6.29375 1.03125 6.43125 1.09375C6.56875 1.15625 6.6875 1.25417 6.7875 1.3875L8.1875 3.2L10.3125 3.9125C10.5292 3.97917 10.7 4.10208 10.825 4.28125C10.95 4.46042 11.0125 4.65833 11.0125 4.875C11.0125 4.975 10.9979 5.075 10.9688 5.175C10.9396 5.275 10.8917 5.37083 10.825 5.4625L9.45 7.4125L9.5 9.4625C9.50833 9.75417 9.4125 10 9.2125 10.2C9.0125 10.4 8.77917 10.5 8.5125 10.5C8.49583 10.5 8.40417 10.4875 8.2375 10.4625L6 9.8375L3.7625 10.4625C3.72083 10.4792 3.675 10.4896 3.625 10.4938C3.575 10.4979 3.52917 10.5 3.4875 10.5C3.22083 10.5 2.9875 10.4 2.7875 10.2C2.5875 10 2.49167 9.75417 2.5 9.4625L2.55 7.4L1.1875 5.4625C1.12083 5.37083 1.07292 5.275 1.04375 5.175C1.01458 5.075 1 4.975 1 4.875C1 4.66667 1.06042 4.47292 1.18125 4.29375C1.30208 4.11458 1.47083 3.9875 1.6875 3.9125L3.8125 3.2Z" fill="white"/>
</g>
</svg>
